<?xml version="1.0" encoding="utf-8"?>
<!-- Generator: Adobe Illustrator 16.0.4, SVG Export Plug-In . SVG Version: 6.00 Build 0)  -->
<!DOCTYPE svg PUBLIC "-//W3C//DTD SVG 1.1//EN" "http://www.w3.org/Graphics/SVG/1.1/DTD/svg11.dtd">
<svg version="1.1" id="Ebene_1_Kopie_Kopie_Kopie" xmlns="http://www.w3.org/2000/svg" xmlns:xlink="http://www.w3.org/1999/xlink"
	 x="0px" y="0px" width="841.891px" height="595.279px" viewBox="0 0 841.891 595.279" enable-background="new 0 0 841.891 595.279"
	 xml:space="preserve">
<circle fill="none" stroke="#000000" stroke-miterlimit="10" cx="424.888" cy="111.361" r="13.465"/>
<path fill="none" stroke="#C2000B" stroke-miterlimit="10" d="M715.757,169.849v-18.288h-6.624v-2.448
	c0.863,0,1.704-0.065,2.521-0.197c0.815-0.131,1.554-0.378,2.214-0.738c0.659-0.36,1.218-0.852,1.674-1.476s0.769-1.416,0.937-2.376
	h2.341v25.523H715.757z"/>
<path fill="none" stroke="#C2000B" stroke-miterlimit="10" d="M707.98,206.454c0.335-1.104,0.857-2.059,1.565-2.862
	s1.59-1.434,2.646-1.89s2.255-0.685,3.6-0.685c1.104,0,2.143,0.162,3.114,0.486c0.973,0.324,1.817,0.792,2.538,1.404
	c0.72,0.611,1.289,1.373,1.71,2.285c0.419,0.913,0.63,1.969,0.63,3.168c0,1.128-0.175,2.124-0.521,2.988
	c-0.349,0.864-0.811,1.638-1.386,2.322c-0.576,0.684-1.236,1.302-1.979,1.854c-0.745,0.553-1.513,1.08-2.305,1.584
	c-0.792,0.48-1.584,0.954-2.376,1.422c-0.792,0.469-1.519,0.967-2.178,1.494c-0.66,0.528-1.225,1.099-1.692,1.71
	c-0.468,0.612-0.773,1.314-0.918,2.106h13.104v2.7h-16.668c0.119-1.513,0.391-2.803,0.811-3.87s0.954-1.998,1.603-2.79
	c0.647-0.792,1.38-1.488,2.195-2.088c0.815-0.601,1.668-1.164,2.557-1.692c1.08-0.672,2.027-1.29,2.844-1.854
	c0.815-0.563,1.494-1.135,2.034-1.71c0.54-0.576,0.947-1.2,1.225-1.872c0.274-0.672,0.414-1.452,0.414-2.34
	c0-0.696-0.133-1.326-0.396-1.891c-0.265-0.562-0.618-1.05-1.062-1.458c-0.444-0.408-0.968-0.72-1.566-0.936
	s-1.236-0.324-1.907-0.324c-0.889,0-1.649,0.187-2.286,0.558c-0.637,0.373-1.157,0.858-1.565,1.458
	c-0.408,0.601-0.702,1.278-0.882,2.034c-0.181,0.756-0.258,1.519-0.234,2.286h-3.06C707.512,208.758,707.644,207.558,707.98,206.454
	z"/>
<path fill="none" stroke="#C2000B" stroke-miterlimit="10" d="M714.245,268.493c0.12,0,0.24,0,0.36,0h0.647
	c0.647,0,1.266-0.091,1.854-0.271s1.104-0.444,1.548-0.792c0.443-0.348,0.798-0.786,1.062-1.313
	c0.265-0.528,0.396-1.128,0.396-1.801c0-1.367-0.432-2.394-1.296-3.077c-0.864-0.685-1.944-1.026-3.24-1.026
	c-0.815,0-1.53,0.149-2.142,0.45c-0.612,0.3-1.116,0.702-1.514,1.206c-0.396,0.504-0.688,1.092-0.882,1.764
	c-0.192,0.672-0.288,1.38-0.288,2.124h-3.06c0.048-1.224,0.246-2.34,0.594-3.348c0.349-1.009,0.847-1.872,1.494-2.593
	c0.648-0.72,1.458-1.282,2.43-1.691c0.974-0.408,2.095-0.612,3.366-0.612c1.104,0,2.13,0.138,3.078,0.414s1.771,0.69,2.466,1.242
	c0.696,0.553,1.242,1.26,1.639,2.124c0.396,0.864,0.595,1.884,0.595,3.06c0,1.152-0.337,2.172-1.008,3.061
	c-0.674,0.888-1.514,1.561-2.521,2.016v0.072c1.561,0.336,2.718,1.067,3.475,2.196c0.757,1.128,1.135,2.46,1.135,3.995
	c0,1.272-0.234,2.395-0.702,3.366c-0.468,0.973-1.099,1.782-1.892,2.431c-0.791,0.647-1.722,1.134-2.789,1.458
	c-1.067,0.323-2.202,0.485-3.401,0.485c-1.296,0-2.473-0.18-3.528-0.54c-1.057-0.359-1.956-0.894-2.7-1.602
	c-0.743-0.708-1.312-1.578-1.71-2.61c-0.396-1.032-0.582-2.208-0.558-3.528h3.06c0.049,1.656,0.528,3.007,1.44,4.051
	s2.244,1.565,3.996,1.565c0.743,0,1.451-0.114,2.124-0.342c0.672-0.228,1.26-0.552,1.764-0.972c0.504-0.419,0.905-0.937,1.206-1.548
	c0.3-0.612,0.45-1.303,0.45-2.07c0-0.792-0.146-1.494-0.432-2.106c-0.288-0.611-0.674-1.127-1.152-1.548
	c-0.48-0.419-1.051-0.731-1.71-0.936c-0.66-0.204-1.374-0.307-2.144-0.307c-0.646,0-1.26,0.036-1.836,0.108v-2.592
	C714.042,268.481,714.149,268.493,714.245,268.493z"/>
<path fill="none" stroke="#C2000B" stroke-miterlimit="10" d="M724.558,331.253v2.698h-3.456v5.978h-2.88v-5.978h-11.196v-2.95
	l11.628-16.599h2.448v16.851H724.558L724.558,331.253z M718.222,318.761h-0.072l-8.496,12.492h8.568V318.761z"/>
<path fill="none" stroke="#C2000B" stroke-miterlimit="10" d="M712.624,373.814l-1.367,7.344l0.071,0.072
	c0.553-0.623,1.267-1.086,2.143-1.387c0.876-0.299,1.746-0.449,2.61-0.449c1.128,0,2.195,0.18,3.203,0.539
	c1.009,0.361,1.885,0.906,2.628,1.639s1.332,1.646,1.765,2.736c0.433,1.092,0.647,2.371,0.647,3.834c0,1.08-0.187,2.131-0.559,3.15
	c-0.372,1.019-0.93,1.926-1.674,2.717c-0.744,0.793-1.675,1.422-2.79,1.891c-1.116,0.469-2.418,0.703-3.905,0.703
	c-1.104,0-2.143-0.162-3.114-0.486c-0.973-0.323-1.831-0.793-2.574-1.403c-0.743-0.613-1.331-1.373-1.764-2.287
	c-0.433-0.91-0.661-1.943-0.685-3.097h3.061c0.048,0.648,0.21,1.255,0.485,1.818c0.275,0.564,0.647,1.057,1.116,1.477
	c0.468,0.421,1.02,0.744,1.655,0.972c0.637,0.229,1.338,0.344,2.105,0.344c0.721,0,1.41-0.127,2.07-0.379
	c0.659-0.252,1.235-0.631,1.729-1.135c0.491-0.504,0.882-1.133,1.17-1.89c0.288-0.756,0.432-1.639,0.432-2.646
	c0-0.84-0.139-1.613-0.413-2.322c-0.276-0.707-0.666-1.32-1.171-1.836c-0.504-0.516-1.109-0.918-1.817-1.205
	c-0.708-0.289-1.493-0.434-2.357-0.434c-1.008,0-1.901,0.223-2.683,0.666c-0.78,0.444-1.47,1.026-2.069,1.746l-2.628-0.144
	l2.376-13.248h12.601v2.699H712.624L712.624,373.814z"/>
<polygon fill="none" stroke="#C2000B" stroke-miterlimit="10" points="322.939,418.335 299.551,402.833 299.551,414.362 
	282.157,402.833 282.157,433.836 299.551,422.308 299.551,433.836 "/>
<g>
	<polygon fill="none" stroke="#C2000B" stroke-miterlimit="10" points="541.248,438.015 524.137,414.276 529.005,410.769 
		541.619,428.269 566.056,399.299 570.642,403.168 	"/>
</g>
<circle fill="none" stroke="#000000" stroke-miterlimit="10" cx="424.889" cy="269.867" r="33.023"/>
<circle fill="none" stroke="#000000" stroke-miterlimit="10" cx="477.755" cy="269.867" r="5.669"/>
<circle fill="none" stroke="#000000" stroke-miterlimit="10" cx="372.022" cy="269.867" r="5.669"/>
<rect x="56.657" y="29.88" fill="none" stroke="#000000" stroke-miterlimit="10" width="736.463" height="521.974"/>
<circle fill="none" stroke="#000000" stroke-miterlimit="10" cx="673.831" cy="157.087" r="22.677"/>
<circle fill="none" stroke="#000000" stroke-miterlimit="10" cx="673.831" cy="383.86" r="22.677"/>
<circle fill="none" stroke="#000000" stroke-miterlimit="10" cx="673.831" cy="327.166" r="22.677"/>
<circle fill="none" stroke="#000000" stroke-miterlimit="10" cx="673.831" cy="270.473" r="22.677"/>
<circle fill="none" stroke="#000000" stroke-miterlimit="10" cx="673.831" cy="213.78" r="22.677"/>
<circle fill="none" stroke="#000000" stroke-miterlimit="10" cx="302.548" cy="473.193" r="22.677"/>
<circle fill="none" stroke="#000000" stroke-miterlimit="10" cx="547.39" cy="473.193" r="22.677"/>
</svg>
